HIERARCHY
ROOT Hips
{
 OFFSET 0.000000 0.000000 0.000000
 CHANNELS 6 Xposition Yposition Zposition Yrotation Xrotation Zrotation
 JOINT Chest
 {
  OFFSET 0.000000 9.876134 0.000104
  CHANNELS 3 Yrotation Xrotation Zrotation
  JOINT Chest2
  {
   OFFSET 0.000000 10.876135 -0.000189
   CHANNELS 3 Yrotation Xrotation Zrotation
   JOINT Chest3
   {
    OFFSET 0.000000 9.827064 0.000000
    CHANNELS 3 Yrotation Xrotation Zrotation
    JOINT Chest4
    {
     OFFSET 0.000000 9.827064 0.000000
     CHANNELS 3 Yrotation Xrotation Zrotation
     JOINT Neck
     {
      OFFSET 0.000000 13.837563 0.000000
      CHANNELS 3 Yrotation Xrotation Zrotation
      JOINT Head
      {
       OFFSET 0.000000 9.147058 -0.000450
       CHANNELS 3 Yrotation Xrotation Zrotation
       End Site
       {
        OFFSET 0.000000 17.513052 -0.000235
       }
      }
     }
     JOINT RightCollar
     {
      OFFSET -3.007720 7.720840 0.000000
      CHANNELS 3 Yrotation Xrotation Zrotation
      JOINT RightShoulder
      {
       OFFSET -14.032537 0.000000 0.000000
       CHANNELS 3 Yrotation Xrotation Zrotation
       JOINT RightElbow
       {
        OFFSET -30.066914 0.000000 0.000000
        CHANNELS 3 Yrotation Xrotation Zrotation
        JOINT RightWrist
        {
         OFFSET -24.575722 0.000000 0.000000
         CHANNELS 3 Yrotation Xrotation Zrotation
         JOINT Prop1
         {
          OFFSET -3.508164 -1.002333 -2.004665
          CHANNELS 3 Yrotation Xrotation Zrotation
          End Site
          {
           OFFSET -75.170611 -33.091209 23.052278
          }
         }
         End Site
         {
          OFFSET -18.342688 0.000000 0.000000
         }
        }
       }
      }
     }
     JOINT LeftCollar
     {
      OFFSET 3.007720 7.720840 0.000000
      CHANNELS 3 Yrotation Xrotation Zrotation
      JOINT LeftShoulder
      {
       OFFSET 14.032537 0.000000 0.000000
       CHANNELS 3 Yrotation Xrotation Zrotation
       JOINT LeftElbow
       {
        OFFSET 30.066914 0.000000 0.000000
        CHANNELS 3 Yrotation Xrotation Zrotation
        JOINT LeftWrist
        {
         OFFSET 24.575722 0.000000 0.000000
         CHANNELS 3 Yrotation Xrotation Zrotation
         End Site
         {
          OFFSET 18.342688 0.000000 0.000000
         }
        }
       }
      }
     }
    }
   }
  }
 }
 JOINT RightHip
 {
  OFFSET -8.019673 -0.000511 -0.000052
  CHANNELS 3 Yrotation Xrotation Zrotation
  JOINT RightKnee
  {
   OFFSET 0.000000 -41.754946 0.000049
   CHANNELS 3 Yrotation Xrotation Zrotation
   JOINT RightAnkle
   {
    OFFSET 0.000000 -40.737371 0.000083
    CHANNELS 3 Yrotation Xrotation Zrotation
    JOINT RightToe
    {
     OFFSET 0.000000 -6.498128 14.692921
     CHANNELS 3 Yrotation Xrotation Zrotation
     End Site
     {
      OFFSET 0.000000 -1.503206 6.410308
     }
    }
   }
  }
 }
 JOINT LeftHip
 {
  OFFSET 8.019673 -0.000511 -0.000052
  CHANNELS 3 Yrotation Xrotation Zrotation
  JOINT LeftKnee
  {
   OFFSET 0.000000 -41.754946 0.000049
   CHANNELS 3 Yrotation Xrotation Zrotation
   JOINT LeftAnkle
   {
    OFFSET 0.000000 -40.737371 0.000083
    CHANNELS 3 Yrotation Xrotation Zrotation
    JOINT LeftToe
    {
     OFFSET 0.000000 -6.498128 14.692921
     CHANNELS 3 Yrotation Xrotation Zrotation
     End Site
     {
      OFFSET 0.000000 -1.503206 6.410308
     }
    }
   }
  }
 }
}
MOTION
Frames: 6
Frame Time: 0.016667
0.000000 88.808232 0.000000 0.000000 -5.826342 0.000000 0.000000 11.116423 0.000000 0.000000 -5.290081 0.000000 0.000000 0.000000 0.000000 0.000000 0.000000 0.000000 0.000000 12.665069 0.000000 0.000000 0.575450 0.000000 0.000000 0.000000 0.000000 0.000000 0.000000 0.000000 2.337306 0.000000 0.000000 -2.337306 0.000000 0.000000 0.000000 0.000000 0.000000 0.000000 0.000000 0.000000 0.000000 0.000000 0.000000 -2.337306 0.000000 0.000000 2.337306 0.000000 0.000000 0.000000 8.578828 0.000000 0.000000 1.905768 0.000000 0.000000 -4.658254 0.000000 0.000000 0.000000 0.000000 0.000000 8.578828 0.000000 0.000000 1.905768 0.000000 0.000000 -4.658254 0.000000 0.000000 0.000000 0.000000
-19.014704 90.207672 -1.917804 174.201425 -14.210758 -2.016046 -6.045385 7.983509 -0.434278 -2.675481 3.547863 -0.084013 -2.675481 3.547863 -0.084013 -2.005481 2.661325 -0.047441 -1.584737 18.445418 1.118648 -3.277837 -1.880512 2.574457 17.248085 3.928382 6.561316 -0.468621 -18.981779 82.558608 -13.066224 -12.156163 -6.870235 -30.353079 16.288774 -17.545179 -18.198065 18.940196 -129.609809 13.402503 0.404310 -11.974673 -16.258262 2.871698 -73.238184 -5.739841 20.659222 -0.292282 -1.037254 -2.587963 1.602176 -5.801884 7.509991 -4.807435 -3.895171 6.258612 -2.410906 18.061106 -0.260955 0.676972 0.004276 0.041434 0.003940 -3.407855 21.412185 6.987190 11.250662 3.235579 -2.722075 17.138287 -5.262416 -2.613394 0.008443 0.094338 0.001684
-19.013232 90.206755 -1.915028 174.214410 -14.193376 -2.020317 -6.044843 7.979586 -0.430055 -2.675392 3.544326 -0.082609 -2.675392 3.544326 -0.082609 -2.005424 2.658667 -0.046404 -1.583063 18.447301 1.121163 -3.275530 -1.876982 2.578466 17.263472 3.927633 6.569822 -0.455359 -18.977289 82.544104 -13.079324 -12.240552 -6.873932 -30.362110 16.312470 -17.553727 -18.211825 18.934083 -129.601066 13.404415 0.406012 -11.984432 -16.265534 2.863004 -73.246416 -5.746695 20.644653 -0.302538 -1.038999 -2.578309 1.599433 -5.790504 7.490627 -4.800848 -3.897175 6.268002 -2.412225 18.084293 -0.276073 0.677049 0.004789 0.050047 0.004163 -3.406009 21.387342 6.993045 11.242052 3.241978 -2.720958 17.173008 -5.262567 -2.615165 0.010137 0.097982 0.001584
-19.020842 90.205312 -1.916325 174.216717 -14.184761 -2.020104 -6.040190 7.980934 -0.429130 -2.674565 3.541975 -0.080603 -2.674565 3.541975 -0.080603 -2.004817 2.656894 -0.044916 -1.577378 18.449162 1.123992 -3.265959 -1.873626 2.581741 17.281997 3.935424 6.570734 -0.473555 -18.985215 82.531168 -13.102662 -12.232152 -6.877797 -30.365100 16.295970 -17.537837 -18.210793 18.911666 -129.599141 13.410611 0.406676 -11.991588 -16.280389 2.866835 -73.255170 -5.764776 20.643457 -0.318797 -1.041090 -2.582264 1.591525 -5.770023 7.479122 -4.796632 -3.910359 6.282627 -2.418581 18.064570 -0.310528 0.678428 0.006821 0.075200 0.005091 -3.417719 21.386974 6.985948 11.251801 3.232977 -2.714763 17.106627 -5.304423 -2.607684 0.008280 0.136949 -0.000957
-19.021866 90.206262 -1.920042 174.223333 -14.194878 -2.025476 -6.038478 7.985205 -0.423736 -2.674231 3.543399 -0.078862 -2.674231 3.543399 -0.078862 -2.004576 2.657954 -0.043606 -1.571422 18.454425 1.126321 -3.255623 -1.863983 2.583896 17.300652 3.942910 6.572893 -0.518703 -18.987748 82.523451 -13.124518 -12.207331 -6.893353 -30.367729 16.293371 -17.544716 -18.203150 18.887082 -129.597302 13.420295 0.410773 -12.002066 -16.297205 2.873542 -73.265058 -5.780724 20.641139 -0.330426 -1.046992 -2.574721 1.573864 -5.762894 7.487053 -4.790802 -3.936499 6.295372 -2.424878 18.054410 -0.319329 0.678241 0.007203 0.076263 0.005102 -3.447081 21.404715 6.972871 11.275483 3.224865 -2.710754 17.095037 -5.304366 -2.602310 0.010689 0.137889 -0.000663
-19.029686 90.208230 -1.920993 174.232639 -14.199879 -2.027474 -6.042042 7.986356 -0.421068 -2.674244 3.545949 -0.078454 -2.674244 3.545949 -0.078454 -2.004587 2.659865 -0.043289 -1.562724 18.455597 1.127913 -3.240135 -1.862059 2.583937 17.317105 3.946783 6.580379 -0.552971 -18.991902 82.517331 -13.143218 -12.176805 -6.917890 -30.363293 16.277379 -17.553712 -18.198095 18.869362 -129.607980 13.430945 0.411866 -12.011690 -16.305877 2.876654 -73.267695 -5.801209 20.641349 -0.345919 -1.047747 -2.560551 1.557295 -5.786517 7.493313 -4.794942 -3.925725 6.294736 -2.422741 18.120774 -0.308686 0.675732 0.006542 0.060077 0.004789 -3.461151 21.404773 6.973251 11.266951 3.232536 -2.708568 17.042091 -5.276723 -2.596863 0.005777 0.103803 -0.002556
